# xmcd CD database file
#
# Track frame offsets:
#	150
#	20146
#	44039
#	60385
#	75417
#	90844
#	106304
#	124445
#	141917
#	161053
#	184516
#
# Disc length: 2950 seconds
#
# Revision: 0
# Processed by: cddbd v1.5.1PL0 Copyright (c) Steve Scherf et al.
# Submitted via: cdripper 1.0.7
#
DISCID=8e0b840b
DTITLE=Richard Pryor 'Rip Lee' - Pitch a Boogie Woogie
DYEAR=1998
DGENRE=Blues
TTITLE0=Pitch a Boogie Woogie
TTITLE1=Stop the Train Conductor
TTITLE2=Honest I Do
TTITLE3=Rip Lee Bounce
TTITLE4=Hold Me In Your Arms
TTITLE5=Thank You Baby
TTITLE6=Cold Chills
TTITLE7=Push a Lot Of Lovin'
TTITLE8=Hello My Little Baby
TTITLE9=Lost a Good Woman
TTITLE10=Sloppy Drunk
EXTD=YEAR: 1998
EXTT0=
EXTT1=
EXTT2=
EXTT3=
EXTT4=
EXTT5=
EXTT6=
EXTT7=
EXTT8=
EXTT9=
EXTT10=
PLAYORDER=
